<svg xmlns="http://www.w3.org/2000/svg" width="180" height="180" viewBox="0 0 180 180"><g><g opacity=".8"><path fill="#66b4aa" d="M163.255 143.76v22.003c0 2.372-1.623 4.495-4.074 5.328l-62.902 8.551c-1.412.477-11.146.477-12.558 0l-62.903-8.551c-2.45-.833-4.074-2.956-4.074-5.328V143.76C7.202 141.998 0 134.335 0 125.176c0-9.16 7.202-16.822 16.744-18.585V86.106c0-1.867 1.01-3.614 2.703-4.677 1.692-1.063 3.853-1.307 5.781-.65l11.984 4.072c7.87-7.414 17.436-12.998 27.919-16.426-10.301-6.917-16.992-18.01-16.992-30.493C48.14 17.016 66.918 0 90 0c23.082 0 41.86 17.016 41.86 37.932 0 12.483-6.69 23.576-16.991 30.493 10.483 3.428 20.049 9.012 27.919 16.426l11.984-4.073c1.928-.656 4.088-.412 5.781.651 1.693 1.063 2.703 2.81 2.703 4.677v20.485c9.542 1.763 16.744 9.426 16.744 18.585s-7.202 16.822-16.745 18.584zM90 64.485c16.157 0 29.302-11.912 29.302-26.553S106.157 11.38 90 11.38 60.698 23.29 60.698 37.932 73.843 64.484 90 64.484zM50.275 89.288L90 102.788l39.725-13.499C118.762 80.682 104.711 75.864 90 75.864c-14.71 0-28.762 4.818-39.725 13.425zM20.93 132.762h4.186v-15.173H20.93c-4.616 0-8.372 3.404-8.372 7.587s3.756 7.586 8.372 7.586zm8.372 29.058l54.419 6.493v-55.505L29.302 94.316V106.4c4.771.882 8.372 4.713 8.372 9.293v18.966c0 4.579-3.6 8.411-8.372 9.292zm121.396 0v-17.869c-4.771-.881-8.372-4.713-8.372-9.292v-18.966c0-4.58 3.601-8.411 8.372-9.293V94.316l-54.419 18.492v55.505zm8.372-29.058c4.617 0 8.372-3.403 8.372-7.586s-3.756-7.587-8.372-7.587h-4.186v15.173z"/></g></g></svg>