<svg xmlns="http://www.w3.org/2000/svg" width="150" height="176" viewBox="0 0 150 176"><g><g opacity=".8"><g opacity=".8"/><g opacity=".8"><g opacity=".8"><path fill="#8b1919" d="M97.5 113.309a33.75 33.75 0 0 1 33.75 33.75v25.312a2.81 2.81 0 0 1-2.812 2.813H21.562a2.81 2.81 0 0 1-2.812-2.813v-25.312a33.75 33.75 0 0 1 33.75-33.61h2.334a39.375 39.375 0 0 1-17.55-22.5h-.253a12.676 12.676 0 0 1-1.406-25.312v-2.953A39.178 39.178 0 0 1 39.619 45.5c-7.116-1.66-12.432-4.22-12.432-8.129 0-5.625 10.772-9.253 32.007-10.715a39.01 39.01 0 0 1 31.612 0c21.235 1.462 32.006 5.09 32.006 10.715 0 3.91-5.315 6.47-12.43 8.129a39.178 39.178 0 0 1 3.993 17.184v2.953a12.625 12.625 0 0 1 11.152 13.248 12.63 12.63 0 0 1-12.558 11.924h-.253a39.375 39.375 0 0 1-17.55 22.5zm-43.903 5.625l6.16 18.534 10.8-5.4-10.941-13.134zm13.36 0L75 128.609l8.044-9.675zm12.487 13.134l10.8 5.4 6.16-18.534h-6.02zm38.972-58.363a7.031 7.031 0 0 0-4.041-2.443v8.297a40.127 40.127 0 0 1-.422 5.625A7.06 7.06 0 0 0 120 78.153c0-1.621-.559-3.192-1.584-4.448zM101.184 33.35a39.855 39.855 0 0 1 6.216 7.003 29.587 29.587 0 0 0 9.337-2.982c-1.63-1.068-6.496-2.812-15.553-4.022zm-11.706-1.115a33.75 33.75 0 0 0-40.634 9.158A192.657 192.657 0 0 0 75 42.996c8.745.06 17.484-.475 26.156-1.603a33.749 33.749 0 0 0-11.678-9.158zM42.6 40.353a39.855 39.855 0 0 1 6.216-7.003c-9.057 1.209-13.922 2.953-15.553 4.021a29.587 29.587 0 0 0 9.337 2.982zm2.728 6.243a33.75 33.75 0 0 0-4.078 16.088v2.953h20.081a26.268 26.268 0 0 0 22.5-12.684 2.813 2.813 0 0 1 4.838 0 26.268 26.268 0 0 0 20.081 12.543v-2.812a33.75 33.75 0 0 0-4.078-16.088A210.42 210.42 0 0 1 75 48.621a210.42 210.42 0 0 1-29.672-2.025zM31.707 82.801a7.06 7.06 0 0 0 4.34 2.383 40.127 40.127 0 0 1-.422-5.625v-8.297A7.031 7.031 0 0 0 30 78.152a7.06 7.06 0 0 0 1.707 4.649zm9.543-3.242a33.75 33.75 0 0 0 67.5 0V71.12a32.034 32.034 0 0 1-22.5-11.953 31.979 31.979 0 0 1-24.834 11.953H41.25zm-16.875 90h11.25v-16.875h5.625v16.875h30.938v-32.006l-12.797 6.384a2.8 2.8 0 0 1-2.91-.216 2.81 2.81 0 0 1-1.028-1.387l-7.65-22.978a28.122 28.122 0 0 0-23.428 27.703zm101.25-22.5a28.122 28.122 0 0 0-23.428-27.788l-7.65 22.979a2.814 2.814 0 0 1-1.603 1.687 2.815 2.815 0 0 1-2.335 0l-12.796-6.384v32.006h30.937v-16.875h5.625v16.875h11.25z"/></g><g opacity=".8"><path fill="#8b1919" d="M75.002 90.81a14.063 14.063 0 0 0-14.062 14.063h5.625a8.437 8.437 0 1 1 16.875 0h5.625A14.063 14.063 0 0 0 75.002 90.81z"/></g><g opacity=".8"><path fill="#ffa800" d="M142.5 38.781a1.406 1.406 0 0 1 1.406-1.406h4.219V31.75h-4.219a7.031 7.031 0 0 0-7.031 7.031 1.406 1.406 0 0 1-1.406 1.407h-4.219v5.624h4.219a7.031 7.031 0 0 0 7.031-7.03z"/></g><g opacity=".8"><path fill="#ffa800" d="M7.505 38.781a7.031 7.031 0 0 0 7.031 7.032h4.219v-5.626h-4.219a1.406 1.406 0 0 1-1.406-1.406 7.031 7.031 0 0 0-7.031-7.031H1.88v5.625h4.219a1.406 1.406 0 0 1 1.406 1.406z"/></g><g opacity=".8"><path fill="#ffa800" d="M16.755 57.88l-2.813 2.813a.984.984 0 0 1-1.63 0 6.975 6.975 0 0 0-9.62 0L-.12 63.505l3.994 3.994 2.812-2.813a.984.984 0 0 1 1.631 0 6.975 6.975 0 0 0 9.62 0l2.812-2.812z"/></g><g opacity=".8"><path fill="#ffa800" d="M147.306 60.693a6.975 6.975 0 0 0-9.619 0 .984.984 0 0 1-1.63 0l-2.813-2.813-3.994 3.994 2.812 2.812a6.975 6.975 0 0 0 9.62 0 .985.985 0 0 1 1.63 0l2.813 2.813 3.994-3.994z"/></g><g opacity=".8"><path fill="#ffa800" d="M35.63 6.44h5.625v5.625H35.63z"/></g><g opacity=".8"><path fill="#ffa800" d="M35.63 17.69h5.625v5.625H35.63z"/></g><g opacity=".8"><path fill="#ffa800" d="M30 12.06h5.625v5.625H30z"/></g><g opacity=".8"><path fill="#ffa800" d="M41.25 12.06h5.625v5.625H41.25z"/></g><g opacity=".8"><path fill="#ffa800" d="M108.75.81h5.625v5.625h-5.625z"/></g><g opacity=".8"><path fill="#ffa800" d="M108.75 12.06h5.625v5.625h-5.625z"/></g><g opacity=".8"><path fill="#ffa800" d="M103.12 6.44h5.625v5.625h-5.625z"/></g><g opacity=".8"><path fill="#ffa800" d="M114.38 6.44h5.625v5.625h-5.625z"/></g></g></g></g></svg>