<svg xmlns="http://www.w3.org/2000/svg" width="180" height="180" viewBox="0 0 180 180"><g><g><g/><g opacity=".8"><g opacity=".8"><g opacity=".8"><g opacity=".8"><path fill="red" d="M178.531 106.569C170.619 149.117 133.411 180 90.066 180h-.008c-24.04-.002-46.642-9.366-63.642-26.366S.052 114.032.05 89.992c-.002-24.04 9.358-46.64 26.355-63.637C43.4 9.36 65.997 0 90.034 0h.009c11.612.001 22.904 2.18 33.577 6.476a21.66 21.66 0 0 1 7.633-1.372c5.884 0 10.234 2.216 13.274 4.726 3.753-3.103 8.283-4.726 13.276-4.726 12.417 0 22.143 10.244 22.143 23.32 0 8.306-3.979 15.636-9.206 21.68a89.362 89.362 0 0 1 7.772 23.256 3.515 3.515 0 1 1-6.911 1.293 82.355 82.355 0 0 0-6.105-19.212c-8.827 7.996-18.566 12.73-19.309 13.084-.441.21-.921.328-1.41.342l-.142.004a3.513 3.513 0 0 1-1.616-.34c-1.385-.658-33.908-16.408-33.908-40.106 0-6.877 2.689-12.97 7.045-17.201C107.768 8.44 99.01 7.032 90.042 7.03h-.008c-22.16 0-42.99 8.628-58.657 24.295C15.707 46.996 7.079 67.83 7.08 89.992c.004 45.749 37.228 82.973 82.978 82.977h.008c39.961 0 74.258-28.465 81.551-67.686a3.516 3.516 0 1 1 6.913 1.286zm-47.278-94.433c-8.474 0-15.111 7.155-15.111 16.289 0 16.82 22.463 29.846 28.448 33.017 5.948-3.173 28.324-16.23 28.324-33.017 0-9.134-6.638-16.29-15.111-16.29-4.149 0-7.685 1.606-10.509 4.77a3.313 3.313 0 0 1-.088.095 3.55 3.55 0 0 1-2.639 1.225 3.51 3.51 0 0 1-2.684-1.187c-2.847-3.253-6.423-4.902-10.63-4.902z"/></g><g opacity=".8"><path fill="red" d="M179.066 89.09a3.546 3.546 0 0 0-3.497-2.161 3.548 3.548 0 0 0-3.126 2.542 3.54 3.54 0 0 0 1.332 3.822 3.552 3.552 0 0 0 3.998.065c1.386-.916 1.92-2.74 1.293-4.268z"/></g><g opacity=".8"><path fill="red" d="M112.001 79.257l6.1-6.1 6.099 6.1a3.516 3.516 0 1 0 4.972-4.972l-8.585-8.585a3.514 3.514 0 0 0-4.972 0l-8.585 8.585A3.516 3.516 0 0 0 112 79.257z"/></g><g opacity=".8"><path fill="red" d="M55.701 79.257l6.1-6.1 6.1 6.1a3.504 3.504 0 0 0 2.486 1.03 3.516 3.516 0 0 0 2.486-6.002L64.287 65.7a3.516 3.516 0 0 0-4.972 0l-8.585 8.585a3.516 3.516 0 0 0 4.971 4.972z"/></g><g opacity=".8"><path fill="red" d="M37.41 95.066a3.517 3.517 0 0 1 3.516-3.516h98.043a3.515 3.515 0 0 1 3.515 3.516v4.207c0 5.211-.761 10.358-2.263 15.298l-.029.09c-3.217 10.515-9.847 19.964-18.677 26.612a52.694 52.694 0 0 1-6.153 3.992l-.004.003c-7.73 4.28-16.517 6.544-25.41 6.544-8.895 0-17.682-2.263-25.411-6.544a.13.13 0 0 1-.01-.005c-12.011-6.654-20.825-17.52-24.826-30.604a52.55 52.55 0 0 1-2.29-15.385zm70.93 45.843c-.358-.41-.73-.808-1.117-1.194-4.617-4.614-10.753-7.156-17.276-7.156-7.16 0-13.796 3.063-18.396 8.349a45.623 45.623 0 0 0 36.79.001zm23.497-23.842h-83.78a46.12 46.12 0 0 0 17.19 20.43c5.938-7.552 14.942-11.969 24.7-11.969 8.4 0 16.301 3.272 22.247 9.214a31.483 31.483 0 0 1 2.453 2.758c.901-.583 1.783-1.2 2.64-1.844 6.378-4.802 11.431-11.288 14.55-18.589zM44.441 99.274c0 3.646.43 7.254 1.28 10.76h88.453a45.665 45.665 0 0 0 1.279-10.76v-.692H44.441z"/></g></g></g></g></g></g></svg>