<svg xmlns="http://www.w3.org/2000/svg" width="68" height="68" viewBox="0 0 68 68"><g><g opacity=".7"><g opacity=".7"><path fill="#8f8f8d" d="M7.763 32.78a2.765 2.765 0 0 0 3.847.724 2.768 2.768 0 0 0 .723-3.848c-.027-.04-2.707-4.046-.457-7.957 4.016-6.981-.441-12.96-.633-13.211a2.77 2.77 0 0 0-4.4 3.36c.024.032 2.435 3.266.235 7.09-3.966 6.891.493 13.561.685 13.842z"/></g><g opacity=".7"><path fill="#8f8f8d" d="M24.2 32.108a2.768 2.768 0 1 0 4.887-2.6c-.032-.06-3.15-6.043-.649-11.832 3.578-8.279-.577-15.457-.756-15.758A2.768 2.768 0 1 0 22.92 4.74c.03.05 2.908 5.022.437 10.74-3.546 8.207.663 16.288.843 16.628z"/></g><g opacity=".7"><path fill="#8f8f8d" d="M40.983 32.37a2.765 2.765 0 0 0 3.847.724 2.768 2.768 0 0 0 .723-3.848c-.027-.04-2.707-4.046-.457-7.958 4.017-6.98-.441-12.959-.633-13.21a2.77 2.77 0 0 0-4.4 3.36c.024.032 2.435 3.266.235 7.09-3.966 6.891.493 13.562.685 13.842z"/></g><g opacity=".7"><path fill="#ffa800" d="M59.29 53.02h-6.658a35.744 35.744 0 0 1-1.592 3.478c.326.249.732.398 1.173.398h7.077c4.625 0 8.388-3.763 8.388-8.388s-3.763-8.388-8.388-8.388H55.24c-.037 1.306-.14 2.6-.302 3.875h4.353a4.518 4.518 0 0 1 4.513 4.513 4.518 4.518 0 0 1-4.513 4.513z"/></g><g opacity=".7"><path fill="#ffa800" d="M18.258 67.623h15.31c9.98-3.713 17.075-14.483 17.758-26.713H.5c.683 12.23 7.778 23 17.758 26.713z"/></g></g></g></svg>