<svg xmlns="http://www.w3.org/2000/svg" width="66" height="80" viewBox="0 0 66 80"><g><g><g><g><g><path fill="red" fill-opacity=".67" d="M36.255 70.63h-6.503a1.563 1.563 0 0 0 0 3.125h6.503a1.563 1.563 0 0 0 0-3.125z"/></g><g><path fill="#ffa800" fill-opacity=".72" d="M64.252 12.5c.864 0 1.563.7 1.563 1.563V25c0 6.893-5.607 12.5-12.5 12.5h-1.321a21.981 21.981 0 0 1-9.65 8.944 4.695 4.695 0 0 1-3.508 5.093c.698 2.321 1.842 5.511 3.48 8.219 1.273 2.107 3.294 4.619 5.686 4.619h3.75c.789 0 1.453.587 1.551 1.369l1.562 12.5A1.563 1.563 0 0 1 53.315 80H12.69a1.563 1.563 0 0 1-1.55-1.756l1.562-12.5a1.563 1.563 0 0 1 1.55-1.369h3.75c3.953 0 7.29-6.582 9.167-12.837a4.696 4.696 0 0 1-3.508-5.094 21.98 21.98 0 0 1-9.65-8.944H12.69C5.797 37.5.19 31.893.19 25V14.063c0-.863.7-1.563 1.562-1.563h9.375V9.106a4.695 4.695 0 0 1-3.125-4.418A4.693 4.693 0 0 1 12.69 0h40.625a4.693 4.693 0 0 1 4.687 4.687 4.695 4.695 0 0 1-3.125 4.42V12.5zM3.316 25c0 5.117 4.121 9.287 9.218 9.371a21.689 21.689 0 0 1-1.406-7.691V15.625H3.315zm47.058 42.5H15.632l-1.172 9.375h37.085zm-8.53-3.125c-.762-.835-1.497-1.836-2.202-3.002-1.992-3.294-3.3-7.17-4.018-9.693h-5.24c-.718 2.52-2.029 6.406-4.026 9.705-.703 1.161-1.435 2.158-2.195 2.99zm-4.153-15.82c.862 0 1.563-.701 1.563-1.563 0-.861-.701-1.562-1.563-1.562h-9.375c-.862 0-1.563.7-1.563 1.562 0 .862.701 1.563 1.563 1.563zM51.753 26.68V9.375h-11.72a1.563 1.563 0 0 1 0-3.125h13.282c.862 0 1.563-.7 1.563-1.562 0-.862-.701-1.563-1.563-1.563H12.69c-.862 0-1.563.7-1.563 1.563 0 .861.701 1.562 1.563 1.562h13.28a1.563 1.563 0 0 1 0 3.125H14.253V26.68c0 7.314 4.202 13.86 10.79 16.961.845-.826 2-1.336 3.273-1.336h9.375c1.272 0 2.428.51 3.273 1.336 6.587-3.102 10.79-9.647 10.79-16.961zM62.69 15.625h-7.813V26.68c0 2.653-.48 5.25-1.405 7.691 5.097-.084 9.218-4.254 9.218-9.37z"/></g><g><path fill="red" fill-opacity=".67" d="M40.979 20.372a3.127 3.127 0 0 1 1.631 5.321l-2.417 2.55.493 3.526c.115.828-.1 1.649-.603 2.313a3.1 3.1 0 0 1-2.06 1.208 3.11 3.11 0 0 1-1.773-.271l-3.29-1.568-3.198 1.556a3.114 3.114 0 0 1-2.387.145 3.102 3.102 0 0 1-1.79-1.586 3.095 3.095 0 0 1-.264-1.932l.454-3.457-2.472-2.564a3.1 3.1 0 0 1-.872-2.225 3.1 3.1 0 0 1 .956-2.189 3.103 3.103 0 0 1 1.667-.832l3.515-.653 1.673-3.14a3.1 3.1 0 0 1 1.844-1.517 3.1 3.1 0 0 1 2.376.231c.54.288.98.724 1.272 1.26v.001l1.74 3.202zm-.61 3.142c.023-.023.045-.046.069-.067l-4.25-.75a1.562 1.562 0 0 1-1.1-.792l-2.097-3.857-2.018 3.8c-.224.42-.626.714-1.094.801l-4.276.795a1.476 1.476 0 0 1-.053.009l2.997 3.097c.33.342.486.816.424 1.287l-.558 4.25a1.514 1.514 0 0 1-.018.113l3.873-1.888c.427-.209.926-.21 1.356-.006l3.971 1.892-.6-4.268a1.562 1.562 0 0 1 .413-1.292z"/></g><g><path fill="red" fill-opacity=".67" d="M33.003 9.375a1.563 1.563 0 0 0 0-3.125h-.001a1.562 1.562 0 1 0 .001 3.125z"/></g></g></g></g></g></svg>