<svg xmlns="http://www.w3.org/2000/svg" width="80" height="36" viewBox="0 0 80 36"><g><g><g/><g><path fill="#66b4aa" fill-opacity=".87" d="M63.29 35.393c-3.513 0-6.887-1.162-9.787-3.367a1.651 1.651 0 0 1-.48-.334l-7.294-7.242a1.737 1.737 0 0 1-.007-2.459 1.748 1.748 0 0 1 2.463-.007l6.998 6.95c.052.035.104.07.152.107 2.349 1.882 5.1 2.873 7.955 2.873 7.298 0 13.232-6.24 13.232-13.912 0-7.674-5.937-13.913-13.232-13.913-2.852 0-5.603.99-7.955 2.869-.08.066-.17.122-.26.174L26.894 31.769a1.678 1.678 0 0 1-.417.27c-2.894 2.195-6.261 3.354-9.768 3.354C7.496 35.393 0 27.591 0 18.001S7.496.61 16.71.61c3.513 0 6.887 1.162 9.787 3.367.175.08.338.191.48.334l7.295 7.242c.681.674.684 1.777.006 2.459a1.738 1.738 0 0 1-2.462.007l-6.998-6.953a2.646 2.646 0 0 1-.154-.108c-2.347-1.878-5.099-2.87-7.955-2.87-7.293 0-13.23 6.24-13.23 13.913 0 7.674 5.937 13.913 13.23 13.913 2.853 0 5.604-.99 7.955-2.869.08-.066.17-.122.261-.174L53.106 4.235c.129-.112.268-.206.418-.272C56.418 1.77 59.784.61 63.29.61 72.504.61 80 8.412 80 18.002s-7.496 17.391-16.71 17.391z"/></g><g><path fill="#66b4aa" fill-opacity=".87" d="M33.044 14.524H22.61a1.74 1.74 0 0 1 0-3.48h8.696V2.35a1.74 1.74 0 0 1 3.478 0v10.435c0 .96-.78 1.74-1.739 1.74z"/></g><g><path fill="#66b4aa" fill-opacity=".87" d="M46.96 35.394c-.96 0-1.74-.78-1.74-1.74V23.22c0-.96.78-1.739 1.74-1.739h10.434a1.74 1.74 0 0 1 0 3.479H48.7v8.695c0 .96-.78 1.74-1.74 1.74z"/></g></g></g></svg>