<svg xmlns="http://www.w3.org/2000/svg" width="76" height="75" viewBox="0 0 76 75"><g><g><g/><g><g><path fill="#8b1919" fill-opacity=".62" d="M74.06 6.693a1.094 1.094 0 0 1 1.094 1.093v66.12a1.093 1.093 0 0 1-1.094 1.093H1.944A1.095 1.095 0 0 1 .85 73.906V7.786a1.092 1.092 0 0 1 1.094-1.093h14.018v-4.86A1.093 1.093 0 0 1 17.056.74h4.665a1.094 1.094 0 0 1 1.093 1.093v4.86h11.762v-4.86A1.094 1.094 0 0 1 35.67.74h4.664a1.094 1.094 0 0 1 1.094 1.093v4.86H53.19v-4.86A1.092 1.092 0 0 1 54.284.74h4.664a1.094 1.094 0 0 1 1.094 1.093v4.86zm-18.683 5.954h2.476v-9.72h-2.476zm-18.613 0h2.475v-9.72h-2.476zm-18.615 0h2.478v-9.72h-2.479zm-15.112 8.74h69.928V8.88H60.041v4.86a1.093 1.093 0 0 1-1.094 1.094h-4.664a1.093 1.093 0 0 1-1.094-1.093V8.88H41.427v4.86a1.09 1.09 0 0 1-1.093 1.093H35.67a1.094 1.094 0 0 1-1.094-1.093V8.88H22.813v4.86a1.09 1.09 0 0 1-1.094 1.093h-4.663a1.094 1.094 0 0 1-1.094-1.093V8.88H3.037zm69.93 51.425V23.575H3.036v49.239z"/></g><g><path fill="#8b1919" fill-opacity=".62" d="M18.84 29.981a5.015 5.015 0 0 1-1.627 8.182 5.023 5.023 0 0 1-6.847-3.657 5.015 5.015 0 0 1 2.135-5.15 5.023 5.023 0 0 1 6.338.625zm-1.547 5.548a2.833 2.833 0 0 0 .353-3.574 2.833 2.833 0 1 0-3.93 3.927 2.834 2.834 0 0 0 3.577-.353z"/></g><g><path fill="#8b1919" fill-opacity=".62" d="M33.98 29.981a5.022 5.022 0 0 1 1.471 3.547 5.015 5.015 0 0 1-3.1 4.635 5.023 5.023 0 0 1-6.845-3.657 5.015 5.015 0 0 1 2.135-5.15 5.023 5.023 0 0 1 6.338.625zm-1.547 5.548a2.834 2.834 0 0 0 .353-3.574 2.833 2.833 0 1 0-3.93 3.927 2.834 2.834 0 0 0 3.577-.353z"/></g><g><path fill="#8b1919" fill-opacity=".62" d="M49.12 29.981a5.015 5.015 0 0 1-1.627 8.182 5.023 5.023 0 0 1-6.847-3.657 5.015 5.015 0 0 1 2.135-5.15 5.023 5.023 0 0 1 6.338.625zm-1.547 5.548a2.833 2.833 0 0 0 .353-3.574 2.833 2.833 0 1 0-3.93 3.927 2.834 2.834 0 0 0 3.577-.353z"/></g><g><path fill="#8b1919" fill-opacity=".62" d="M64.26 29.981a5.015 5.015 0 0 1-1.628 8.182 5.024 5.024 0 0 1-6.846-3.657 5.015 5.015 0 0 1 2.136-5.15 5.023 5.023 0 0 1 6.338.625zm-1.547 5.548a2.833 2.833 0 0 0 .353-3.575 2.833 2.833 0 1 0-3.929 3.928 2.834 2.834 0 0 0 3.576-.353z"/></g><g><path fill="#8b1919" fill-opacity=".62" d="M18.84 44.651a5.016 5.016 0 0 1-1.627 8.183 5.024 5.024 0 0 1-6.847-3.657 5.015 5.015 0 0 1 2.136-5.152 5.023 5.023 0 0 1 6.338.626zm-3.548 6.375a2.837 2.837 0 0 0 2.833-2.828 2.83 2.83 0 0 0-3.387-2.778 2.834 2.834 0 0 0-2.065 3.862 2.832 2.832 0 0 0 2.619 1.748z"/></g><g><path fill="#8b1919" fill-opacity=".62" d="M33.98 44.651a5.016 5.016 0 0 1-1.627 8.183 5.024 5.024 0 0 1-6.847-3.657 5.015 5.015 0 0 1 2.136-5.152 5.023 5.023 0 0 1 6.338.626zm-3.548 6.375a2.838 2.838 0 0 0 2.833-2.828 2.83 2.83 0 0 0-3.387-2.778 2.834 2.834 0 0 0-2.065 3.862 2.832 2.832 0 0 0 2.619 1.748z"/></g><g><path fill="#8b1919" fill-opacity=".62" d="M49.12 44.651a5.022 5.022 0 0 1 1.473 3.547 5.016 5.016 0 0 1-3.1 4.636 5.024 5.024 0 0 1-6.847-3.657 5.015 5.015 0 0 1 2.136-5.152 5.023 5.023 0 0 1 6.338.626zm-3.548 6.375a2.837 2.837 0 0 0 2.833-2.828 2.83 2.83 0 0 0-3.387-2.778 2.834 2.834 0 0 0-2.065 3.862 2.832 2.832 0 0 0 2.619 1.748z"/></g><g><path fill="#8b1919" fill-opacity=".62" d="M64.26 44.651a5.016 5.016 0 0 1-1.628 8.183 5.025 5.025 0 0 1-6.846-3.657 5.015 5.015 0 0 1 2.136-5.152 5.023 5.023 0 0 1 6.339.626zm-3.548 6.375a2.837 2.837 0 0 0 2.833-2.828 2.83 2.83 0 0 0-3.387-2.778 2.834 2.834 0 0 0-2.064 3.862 2.832 2.832 0 0 0 2.619 1.748z"/></g><g><path fill="#8b1919" fill-opacity=".62" d="M18.84 59.311a5.015 5.015 0 0 1-1.627 8.182 5.024 5.024 0 0 1-6.847-3.657 5.015 5.015 0 0 1 2.135-5.15 5.023 5.023 0 0 1 6.338.625zm-1.547 5.548a2.833 2.833 0 0 0 .353-3.574 2.833 2.833 0 1 0-3.93 3.927 2.834 2.834 0 0 0 3.577-.353z"/></g><g><path fill="#8b1919" fill-opacity=".62" d="M33.98 59.311a5.022 5.022 0 0 1 1.471 3.547 5.015 5.015 0 0 1-3.1 4.635 5.024 5.024 0 0 1-6.845-3.657 5.015 5.015 0 0 1 2.135-5.15 5.023 5.023 0 0 1 6.338.625zm-1.547 5.548a2.834 2.834 0 0 0 .353-3.574 2.833 2.833 0 1 0-3.93 3.927 2.834 2.834 0 0 0 3.577-.353z"/></g><g><path fill="#8b1919" fill-opacity=".62" d="M49.12 59.311a5.015 5.015 0 0 1-1.627 8.182 5.024 5.024 0 0 1-6.847-3.657 5.015 5.015 0 0 1 2.135-5.15 5.023 5.023 0 0 1 6.338.625zm-1.547 5.548a2.833 2.833 0 0 0 .353-3.574 2.833 2.833 0 1 0-3.93 3.927 2.834 2.834 0 0 0 3.577-.353z"/></g><g><path fill="#8b1919" fill-opacity=".62" d="M64.26 59.311a5.015 5.015 0 0 1-1.628 8.182 5.023 5.023 0 0 1-6.846-3.657 5.015 5.015 0 0 1 2.136-5.15 5.023 5.023 0 0 1 6.338.625zm-1.547 5.548a2.833 2.833 0 0 0 .353-3.575 2.833 2.833 0 1 0-3.929 3.928 2.834 2.834 0 0 0 3.576-.353z"/></g></g></g></g></svg>