<?xml version="1.0" encoding="utf-8"?>
<!-- Generator: Adobe Illustrator 24.1.3, SVG Export Plug-In . SVG Version: 6.00 Build 0)  -->
<svg version="1.1" id="Слой_1" xmlns="http://www.w3.org/2000/svg" xmlns:xlink="http://www.w3.org/1999/xlink" x="0px" y="0px"
	 viewBox="0 0 43 54" style="enable-background:new 0 0 43 54;" xml:space="preserve">
<style type="text/css">
	.st0{fill:#FF0000;fill-opacity:0.67;}
</style>
<g>
	<g>
		<g>
			<g>
				<g>
					<path class="st0" d="M3.7,52.7l17.8-17.8l17.8,17.8c0.8,0.8,2.2,0.8,3.1,0c0,0,0,0,0,0c0.8-0.8,0.8-2.2,0-3.1L23,30.3
						c-0.8-0.8-2.2-0.8-3.1,0c0,0,0,0,0,0L0.6,49.6c-0.8,0.8-0.8,2.2,0,3.1C1.5,53.6,2.9,53.5,3.7,52.7z"/>
				</g>
			</g>
		</g>
		<g>
			<g>
				<g>
					<path class="st0" d="M3.7,38.4l17.8-17.8l17.8,17.8c0.8,0.8,2.2,0.8,3.1,0c0,0,0,0,0,0c0.8-0.8,0.8-2.2,0-3.1L23,16
						c-0.8-0.8-2.2-0.8-3.1,0c0,0,0,0,0,0L0.6,35.3c-0.8,0.8-0.8,2.2,0,3.1C1.5,39.2,2.9,39.2,3.7,38.4z"/>
				</g>
			</g>
		</g>
		<g>
			<g>
				<g>
					<path class="st0" d="M3.7,23.7L21.5,5.9l17.8,17.8c0.8,0.8,2.2,0.8,3.1,0c0,0,0,0,0,0c0.8-0.8,0.8-2.2,0-3.1L23,1.3
						c-0.8-0.8-2.2-0.8-3.1,0c0,0,0,0,0,0L0.6,20.6c-0.8,0.8-0.8,2.2,0,3.1C1.5,24.6,2.9,24.5,3.7,23.7z"/>
				</g>
			</g>
		</g>
	</g>
</g>
</svg>
