<svg xmlns="http://www.w3.org/2000/svg" width="43" height="54" viewBox="0 0 43 54"><g><g><g><g/><g><g><path fill="red" fill-opacity=".67" d="M3.7 1.297L21.498 19.1 39.296 1.295a2.169 2.169 0 0 1 3.07 0 2.175 2.175 0 0 1 0 3.072L23.033 23.705a2.167 2.167 0 0 1-3.068 0L.635 4.367a2.178 2.178 0 0 1 0-3.074 2.168 2.168 0 0 1 3.065.004z"/></g></g></g><g><g/><g><g><path fill="red" fill-opacity=".67" d="M3.7 15.639L21.498 33.44l17.798-17.804a2.169 2.169 0 0 1 3.07 0 2.175 2.175 0 0 1 0 3.072L23.033 38.046a2.167 2.167 0 0 1-3.068 0L.635 18.708a2.178 2.178 0 0 1 0-3.074 2.168 2.168 0 0 1 3.065.005z"/></g></g></g><g><g/><g><g><path fill="red" fill-opacity=".67" d="M3.7 30.297L21.498 48.1l17.798-17.804a2.169 2.169 0 0 1 3.07 0 2.175 2.175 0 0 1 0 3.072L23.033 52.705a2.167 2.167 0 0 1-3.068 0L.635 33.367a2.178 2.178 0 0 1 0-3.074 2.168 2.168 0 0 1 3.065.004z"/></g></g></g></g></g></svg>