<svg xmlns="http://www.w3.org/2000/svg" width="98" height="98" viewBox="0 0 98 98"><g><g><g/><g><path fill="#66b4aa" fill-opacity=".87" d="M95.037 55.168L84.935 65.269v27.479a4.693 4.693 0 0 1-4.688 4.687h-68.75a4.693 4.693 0 0 1-4.687-4.688V53.686H5.248A4.693 4.693 0 0 1 .56 48.997v-25a4.693 4.693 0 0 1 4.688-4.687H6.81V5.248A4.693 4.693 0 0 1 11.498.56h68.75a4.693 4.693 0 0 1 4.687 4.688v37.184a8.118 8.118 0 0 1 4.31-1.247c4.515 0 8.19 3.675 8.19 8.192a8.135 8.135 0 0 1-2.398 5.79zM11.497 3.685c-.862 0-1.562.702-1.562 1.563v7.812H81.81V5.248c0-.861-.7-1.563-1.563-1.563zM3.686 48.998c0 .86.7 1.562 1.563 1.562h34.374c.863 0 1.563-.702 1.563-1.563v-25c0-.86-.7-1.562-1.563-1.562H5.248c-.863 0-1.563.702-1.563 1.563zM81.81 68.394L60.673 89.532l-13.516 1.931 1.931-13.515 24.263-24.263H50.56V38.06h28.125v10.29l3.125-3.124V16.185H9.935v3.125h29.688a4.693 4.693 0 0 1 4.687 4.688v25a4.693 4.693 0 0 1-4.688 4.687H9.936v39.063c0 .862.7 1.562 1.563 1.562h68.75c.862 0 1.562-.7 1.562-1.562zM50.84 87.78l5.78-.825L51.666 82zm35.01-27.845l-2.477-2.478-25.916 25.916 2.478 2.478zm-4.687-4.688l-2.478-2.478-25.916 25.916 2.479 2.478zM75.56 41.186H53.685v9.375H75.56zm17.267 11.773a5.098 5.098 0 0 0 1.483-3.58 5.072 5.072 0 0 0-5.066-5.068 5.021 5.021 0 0 0-3.58 1.484h-.002l-4.768 4.766 7.166 7.166z"/></g><g><path fill="#8b1919" fill-opacity=".62" d="M17.75 6.81h3.125v3.125H17.75z"/></g><g><path fill="#8b1919" fill-opacity=".62" d="M11.5 6.81h3.125v3.125H11.5z"/></g><g><path fill="#8b1919" fill-opacity=".62" d="M24 6.81h3.125v3.125H24z"/></g><g transform="rotate(108.47 22 37)"><path fill="#8b1919" fill-opacity=".62" d="M32.355 38.075H12.58V34.95h19.775z"/></g><g><path fill="#8b1919" fill-opacity=".62" d="M29.15 31.36l5.145 5.145-5.145 5.145 2.21 2.21 7.354-7.355-7.355-7.355z"/></g><g><path fill="#8b1919" fill-opacity=".62" d="M13.525 29.15L6.17 36.505l7.355 7.354 2.21-2.209-5.146-5.145 5.145-5.146z"/></g><g><path fill="#66b4aa" fill-opacity=".87" d="M78.685 34.935H50.56V19.31h28.125zm-3.125-12.5H53.685v9.375H75.56z"/></g><g><path fill="#66b4aa" fill-opacity=".87" d="M13.06 88.06h25v3.125h-25z"/></g><g><path fill="#66b4aa" fill-opacity=".87" d="M13.06 81.81h31.25v3.125H13.06z"/></g><g><path fill="#8b1919" fill-opacity=".62" d="M16.185 78.685h3.125V75.56h3.125v-3.125H19.31V56.81h-3.125v15.625H13.06v3.125h3.125z"/></g><g><path fill="#8b1919" fill-opacity=".62" d="M28.685 78.685h3.125V63.06h3.125v-3.125H31.81V56.81h-3.125v3.125H25.56v3.125h3.125z"/></g><g><path fill="#8b1919" fill-opacity=".62" d="M47.435 69.31v-3.125H44.31V56.81h-3.125v9.375H38.06v3.125h3.125v9.375h3.125V69.31z"/></g><g><path fill="#66b4aa" fill-opacity=".87" d="M41.19 88.06h3.125v3.125H41.19z"/></g><g><path fill="#8b1919" fill-opacity=".62" d="M75.56 75.56h3.125v3.125H75.56z"/></g><g><path fill="#8b1919" fill-opacity=".62" d="M75.56 88.06h3.125v3.125H75.56z"/></g><g><path fill="#8b1919" fill-opacity=".62" d="M75.56 81.81h3.125v3.125H75.56z"/></g></g></g></svg>