<svg xmlns="http://www.w3.org/2000/svg" width="98" height="98" viewBox="0 0 98 98"><g><g><g/><g><path fill="#66b4aa" fill-opacity=".87" d="M92.748.56a4.693 4.693 0 0 1 4.687 4.688v62.5a4.693 4.693 0 0 1-4.688 4.687H69.31v1.563c0 4.307-3.505 7.812-7.813 7.812H46.48l2.083 6.25h5.123a4.693 4.693 0 0 1 4.688 4.688v4.687H11.498v-4.688a4.693 4.693 0 0 1 4.687-4.687h5.123l2.083-6.25H8.373C4.065 81.81.56 78.305.56 73.997v-37.5c0-4.307 3.505-7.812 7.813-7.812H19.31V5.248A4.693 4.693 0 0 1 23.998.56zm-68.75 3.125c-.861 0-1.563.702-1.563 1.563v7.812H94.31V5.247c0-.86-.702-1.562-1.563-1.562zM8.372 31.81a4.693 4.693 0 0 0-4.687 4.688v29.687h62.5V36.497a4.693 4.693 0 0 0-4.688-4.687zM69.31 63.06h18.75V41.185H69.31zM55.247 92.748c0-.861-.701-1.563-1.562-1.563h-37.5c-.86 0-1.562.702-1.562 1.563v1.562h40.625zM43.184 81.81H26.687l-2.083 6.25h20.662zm18.315-3.125a4.693 4.693 0 0 0 4.687-4.688V69.31h-62.5v4.688a4.693 4.693 0 0 0 4.688 4.687zm31.25-9.375c.86 0 1.562-.702 1.562-1.563V16.186H22.435v12.5h39.063c4.307 0 7.812 3.505 7.812 7.813v1.562h21.875v28.125H69.31v3.125z"/></g><g><path fill="#8b1919" fill-opacity=".62" d="M27.13 72.44h3.125v3.125H27.13z"/></g><g><path fill="#8b1919" fill-opacity=".62" d="M33.38 72.44h3.125v3.125H33.38z"/></g><g><path fill="#8b1919" fill-opacity=".62" d="M39.63 72.44h3.125v3.125H39.63z"/></g><g><path fill="#8b1919" fill-opacity=".62" d="M31.81 6.81h3.125v3.125H31.81z"/></g><g><path fill="#8b1919" fill-opacity=".62" d="M38.06 6.81h3.125v3.125H38.06z"/></g><g><path fill="#8b1919" fill-opacity=".62" d="M25.56 6.81h3.125v3.125H25.56z"/></g><g><path fill="#8b1919" fill-opacity=".62" d="M25.56 19.31h3.125v3.125H25.56z"/></g><g><path fill="#8b1919" fill-opacity=".62" d="M31.81 19.31h59.375v3.125H31.81z"/></g><g><path fill="#8b1919" fill-opacity=".62" d="M72.44 25.56h18.75v3.125H72.44z"/></g><g><path fill="#8b1919" fill-opacity=".62" d="M72.44 31.81h18.75v3.125H72.44z"/></g><g><path fill="#8b1919" fill-opacity=".62" d="M11.498 63.065a4.693 4.693 0 0 1-4.688-4.688v-18.75a4.693 4.693 0 0 1 4.688-4.687h31.25a4.693 4.693 0 0 1 4.687 4.688v18.75a4.693 4.693 0 0 1-4.688 4.687zm-1.563-4.688c0 .861.702 1.563 1.563 1.563h31.25c.86 0 1.562-.702 1.562-1.563v-18.75c0-.86-.702-1.562-1.563-1.562h-31.25c-.86 0-1.562.702-1.562 1.563z"/></g><g><path fill="#8b1919" fill-opacity=".62" d="M22.527 57.855L28.773 39.1l2.965.988-6.245 18.756z"/></g><g><path fill="#8b1919" fill-opacity=".62" d="M34.48 56.36l7.354-7.355-7.355-7.355-2.209 2.21 5.145 5.145-5.145 5.145z"/></g><g><path fill="#8b1919" fill-opacity=".62" d="M21.984 54.15l-5.145-5.145 5.145-5.146-2.21-2.209-7.354 7.355 7.355 7.354z"/></g><g><path fill="#8b1919" fill-opacity=".62" d="M50.56 34.94h12.5v3.125h-12.5z"/></g><g><path fill="#8b1919" fill-opacity=".62" d="M50.56 41.19h12.5v3.125h-12.5z"/></g><g><path fill="#8b1919" fill-opacity=".62" d="M50.56 47.44h12.5v3.125h-12.5z"/></g><g><path fill="#8b1919" fill-opacity=".62" d="M50.56 53.69h12.5v3.125h-12.5z"/></g><g><path fill="#8b1919" fill-opacity=".62" d="M53.69 59.94h3.125v3.125H53.69z"/></g><g><path fill="#8b1919" fill-opacity=".62" d="M59.94 59.94h3.125v3.125H59.94z"/></g></g></g></svg>